<?xml version="1.0" encoding="UTF-8"?>
<svg id="Capa_1" xmlns="http://www.w3.org/2000/svg" version="1.1" viewBox="0 0 600 600">
  <!-- Generator: Adobe Illustrator 30.1.0, SVG Export Plug-In . SVG Version: 2.1.1 Build 136)  -->
  <defs>
    <style>
      .st0 {
        fill: #1c4d86;
      }
    </style>
  </defs>
  <path class="st0" d="M112,415.7h64.9c4.5-48.9,37.6-89.5,82.3-105.1-12.5-11.3-20.5-27.4-20.5-45.4,0-33.8,27.5-61.4,61.4-61.4s61.4,27.5,61.4,61.4-8,34.3-20.5,45.4c44.7,15.7,77.8,56.3,82.3,105.1h64.9v-251.4H112v251.4Z"/>
  <path class="st0" d="M537.9,148.9c0-19-15.5-34.4-34.4-34.4H96.5c-19,0-34.4,15.5-34.4,34.4v316.7h475.8V148.9ZM510.9,427.3c0,6.4-5.2,11.4-11.4,11.4H100.4c-6.4,0-11.4-5.2-11.4-11.4V152.9c0-6.4,5.2-11.4,11.4-11.4h399c6.4,0,11.4,5.2,11.4,11.4v274.3h0Z"/>
  <path class="st0" d="M50.6,488.6h-26v5c0,19,15.5,34.4,34.4,34.4h481.8c19,0,34.4-15.5,34.4-34.4v-5H50.6Z"/>
</svg>