<?xml version="1.0" encoding="UTF-8"?>
<svg id="Capa_1" xmlns="http://www.w3.org/2000/svg" version="1.1" viewBox="0 0 600 600">
  <!-- Generator: Adobe Illustrator 30.1.0, SVG Export Plug-In . SVG Version: 2.1.1 Build 136)  -->
  <defs>
    <style>
      .st0 {
        fill: #1c4d86;
      }
    </style>
  </defs>
  <path class="st0" d="M475.4,335.5h-38.1c3.9,10.6,6,22.1,6,34.1v144.1c0,5-.9,9.8-2.5,14.2h63c23.5,0,42.7-19.2,42.7-42.7v-78.6c0-39.2-31.9-71.2-71.2-71.2h0Z"/>
  <path class="st0" d="M156.7,369.6c0-12,2.1-23.5,6-34.1h-38.1c-39.2,0-71.2,31.9-71.2,71.2v78.6c0,23.5,19.2,42.7,42.7,42.7h63c-1.6-4.5-2.4-9.2-2.4-14.2v-144.1h0Z"/>
  <path class="st0" d="M343.6,298.5h-87.2c-39.2,0-71.2,31.9-71.2,71.2v144.1c0,7.9,6.4,14.2,14.2,14.2h201.1c7.9,0,14.2-6.4,14.2-14.2v-144.1c0-39.2-31.9-71.2-71.2-71.2h0Z"/>
  <path class="st0" d="M300,109.7c-47.2,0-85.6,38.4-85.6,85.6s17.7,60,43.8,74.7c12.4,7,26.6,10.9,41.8,10.9s29.5-4,41.8-10.9c26.1-14.7,43.8-42.6,43.8-74.7,0-47.2-38.4-85.6-85.6-85.6h0Z"/>
  <path class="st0" d="M149.7,189.5c-35.3,0-64,28.7-64,64s28.7,64,64,64,17.5-1.9,25.2-5.2c13.4-5.8,24.4-16,31.3-28.8,4.8-9,7.5-19.2,7.5-30.1,0-35.3-28.7-64-64-64Z"/>
  <path class="st0" d="M450.3,189.5c-35.3,0-64,28.7-64,64s2.7,21.1,7.5,30.1c6.8,12.8,17.9,23,31.3,28.8,7.8,3.3,16.3,5.2,25.2,5.2,35.3,0,64-28.7,64-64s-28.7-64-64-64h0Z"/>
</svg>