<?xml version="1.0" encoding="UTF-8"?>
<svg id="Capa_1" xmlns="http://www.w3.org/2000/svg" version="1.1" viewBox="0 0 600 600">
  <!-- Generator: Adobe Illustrator 30.1.0, SVG Export Plug-In . SVG Version: 2.1.1 Build 136)  -->
  <defs>
    <style>
      .st0 {
        fill: #d83135;
      }
    </style>
  </defs>
  <path class="st0" d="M511.9,270.9h0l-182.7-182.7c-7.8-7.8-18.1-12.1-29.2-12.1s-21.4,4.3-29.2,12.1l-182.6,182.6-.2.2c-16,16.1-16,42.2,0,58.2,7.3,7.3,17,11.6,27.4,12h8.6v134.4c0,26.6,21.6,48.3,48.3,48.3h71.5c7.2,0,13.1-5.9,13.1-13.1v-105.4c0-12.1,9.9-22,22-22h42.2c12.1,0,22,9.9,22,22v105.4c0,7.2,5.9,13.1,13.1,13.1h71.5c26.6,0,48.3-21.6,48.3-48.3v-134.4h6.8c11,0,21.4-4.3,29.2-12.1,16.1-16.1,16.1-42.2,0-58.3h-.1Z"/>
</svg>