<?xml version="1.0" encoding="UTF-8"?>
<svg id="Capa_1" data-name="Capa 1" xmlns="http://www.w3.org/2000/svg" viewBox="0 0 600 600">
  <defs>
    <style>
      .cls-1 {
        fill: #fff;
      }
    </style>
  </defs>
  <path class="cls-1" d="M424.25,154.6c-5.8-5.81-13.52-9.02-21.73-9.02h-13.63v13.66c0,15.07-12.25,27.33-27.3,27.33h-122.85c-15.05,0-27.3-12.26-27.3-27.33v-13.66h-13.67c-16.92,0-30.69,13.78-30.71,30.71l-.3,267.83c0,8.22,3.18,15.95,8.98,21.76,5.8,5.82,13.52,9.02,21.73,9.02h204.75c16.92,0,30.69-13.78,30.71-30.71l.3-267.83c0-8.22-3.18-15.95-8.98-21.76h0ZM303.48,248.07h72.73c5.65,0,10.24,4.59,10.24,10.25s-4.58,10.25-10.24,10.25h-72.73c-5.65,0-10.24-4.59-10.24-10.25s4.58-10.25,10.24-10.25ZM303.48,316.4h72.73c5.65,0,10.24,4.59,10.24,10.25s-4.58,10.25-10.24,10.25h-72.73c-5.65,0-10.24-4.59-10.24-10.25s4.58-10.25,10.24-10.25ZM303.48,384.72h73.03c5.65,0,10.24,4.59,10.24,10.25s-4.58,10.25-10.24,10.25h-73.03c-5.65,0-10.24-4.59-10.24-10.25s4.58-10.25,10.24-10.25ZM216.26,248.48c4-4,10.48-4,14.48,0l5.57,5.57,23.61-23.63c4-4,10.48-4,14.48,0,4,4,4,10.49,0,14.49l-30.85,30.88c-1.92,1.92-4.52,3-7.24,3s-5.32-1.08-7.24-3l-12.81-12.82c-4-4-4-10.49,0-14.49h0ZM216.26,322.02c4-4,10.48-4,14.48,0l5.57,5.57,23.61-23.63c4-4,10.48-4,14.48,0s4,10.49,0,14.49l-30.85,30.88c-1.92,1.92-4.52,3-7.24,3s-5.32-1.08-7.24-3l-12.81-12.82c-4-4-4-10.49,0-14.49ZM216.26,390.35c4-4,10.48-4,14.48,0l5.57,5.57,23.61-23.63c4-4,10.48-4,14.48,0,4,4,4,10.49,0,14.49l-30.85,30.88c-1.92,1.92-4.52,3-7.24,3s-5.32-1.08-7.24-3l-12.81-12.82c-4-4-4-10.49,0-14.49Z"/>
  <path class="cls-1" d="M231.92,159.25c0,3.77,3.06,6.83,6.82,6.83h122.85c3.77,0,6.82-3.06,6.82-6.83v-27.33c0-3.77-3.06-6.83-6.82-6.83h-122.85c-3.77,0-6.82,3.06-6.82,6.83v27.33Z"/>
</svg>