<?xml version="1.0" encoding="UTF-8"?>
<svg id="Capa_1" data-name="Capa 1" xmlns="http://www.w3.org/2000/svg" viewBox="0 0 600 600">
  <defs>
    <style>
      .cls-1 {
        fill: #fff;
      }
    </style>
  </defs>
  <path class="cls-1" d="M316.27,191.13c17.9,0,32.54-14.64,32.54-32.54s-14.64-32.54-32.54-32.54-32.54,14.64-32.54,32.54,14.64,32.54,32.54,32.54ZM256.07,244.82l-42.3,211.52c-1.63,9.76,4.88,19.53,16.27,19.53h1.63c8.14,0,14.64-4.88,16.27-13.02l26.03-117.15,34.17,32.54v81.35c0,8.14,6.51,16.27,16.27,16.27s16.27-8.14,16.27-16.27v-91.12c0-9.76-3.25-17.9-9.76-22.78l-24.41-22.78,9.76-48.81c17.9,19.52,42.3,34.17,71.59,39.05,9.76,1.63,17.9-6.51,17.9-16.27,0-8.14-6.51-14.64-14.64-16.27-24.41-4.88-45.56-17.9-55.32-37.42l-16.27-26.03c-9.76-14.64-27.66-21.15-43.93-13.02l-61.83,22.78c-11.39,6.51-19.52,17.9-19.52,30.91v39.05c0,9.76,6.51,16.27,16.27,16.27s16.27-6.51,16.27-16.27v-39.05l29.29-13.02Z"/>
</svg>