<?xml version="1.0" encoding="UTF-8"?>
<svg id="Capa_1" data-name="Capa 1" xmlns="http://www.w3.org/2000/svg" viewBox="0 0 600 600">
  <defs>
    <style>
      .cls-1 {
        fill: #fff;
      }
    </style>
  </defs>
  <path class="cls-1" d="M441.91,237.18l-14.49-101.46c-1.19-8.32-11.42-11.77-17.39-5.79l-21.11,21.11c-27.14-16.37-57.96-24.99-89.65-24.99-95.29,0-171.8,74.58-174.18,169.79-.13,5.2,3.65,9.67,8.8,10.41l40.95,5.85c6.11.89,11.79-3.9,11.7-10.29-.85-62.84,49.9-114.28,112.73-114.28,15.21,0,30.25,3.09,44.14,9.01l-20.35,20.35c-5.94,5.94-2.57,16.2,5.79,17.39l101.46,14.49c6.68,1.01,12.56-4.81,11.6-11.6Z"/>
  <path class="cls-1" d="M466.11,296.46l-40.92-5.85c-5.29-.67-11.7,3.86-11.7,11.03,0,62.16-50.57,112.74-112.74,112.74-15.13,0-30.1-3.06-43.94-8.92l19.7-19.7c5.94-5.94,2.57-16.2-5.79-17.39l-101.46-14.5c-6.66-.95-12.56,4.76-11.6,11.6l14.49,101.46c1.19,8.33,11.41,11.76,17.39,5.79l21.62-21.61c27.01,16.22,57.81,24.76,89.59,24.76,94.83,0,171.33-74.21,174.16-168.95.15-5.21-3.63-9.72-8.8-10.46Z"/>
</svg>