<?xml version="1.0" encoding="UTF-8"?>
<svg id="Capa_1" xmlns="http://www.w3.org/2000/svg" version="1.1" viewBox="0 0 600 600">
  <!-- Generator: Adobe Illustrator 30.1.0, SVG Export Plug-In . SVG Version: 2.1.1 Build 136)  -->
  <defs>
    <style>
      .st0 {
        fill: #1c4d86;
        fill-rule: evenodd;
      }
    </style>
  </defs>
  <path class="st0" d="M449,152.8l30.2,19v143.6c0,53.2-23.5,98.9-66.6,130l-112.5,80.9-112.5-80.9c-43.2-31-66.6-76.8-66.6-130v-143.6l30.2-19c93.2-58.7,204.7-58.7,297.9,0h0ZM336.8,251.8l-54.4,54.4-18.3-23c-4-5-11.3-5.9-16.3-1.9-5,4-5.9,11.3-1.9,16.3l26,32.7c4.1,5.9,12.6,6.7,17.8,1.6l63.6-63.6c4.5-4.5,4.5-11.9,0-16.5-4.5-4.5-11.9-4.5-16.5,0ZM162.1,194.6v120.9c0,39.9,17,73.2,49.4,96.5l88.4,63.6,88.4-63.6c32.4-23.3,49.4-56.5,49.4-96.5v-120.9l-10.9-6.9c-39.9-25.1-83.4-37.7-127-37.7s-87.1,12.6-127,37.7l-10.9,6.9ZM147.7,315.5c0,44.5,19.4,82.2,55.5,108.1l92.6,66.6c2.6,1.9,6.1,1.8,8.5,0l92.5-66.5c36.1-26,55.5-63.6,55.5-108.1v-124.8c0-2.8-1.6-5.2-3.8-6.4l-13.8-8.7c-42.3-26.6-88.4-39.9-134.6-39.9s-92.4,13.3-134.6,39.9l-14.3,9c-2.2,1.4-3.4,3.7-3.4,6.1v124.8ZM300,197c-52.4,0-94.8,42.5-94.8,94.8s42.5,94.8,94.8,94.8,94.8-42.5,94.8-94.8-42.5-94.8-94.8-94.8h0Z"/>
</svg>