<?xml version="1.0" encoding="UTF-8"?>
<svg id="Capa_1" xmlns="http://www.w3.org/2000/svg" version="1.1" viewBox="0 0 600 600">
  <!-- Generator: Adobe Illustrator 30.1.0, SVG Export Plug-In . SVG Version: 2.1.1 Build 136)  -->
  <defs>
    <style>
      .st0 {
        fill: #1c4d86;
      }
    </style>
  </defs>
  <g>
    <path class="st0" d="M538.1,127.7c0-19-15.5-34.4-34.4-34.4H96.7c-19,0-34.4,15.5-34.4,34.4v316.7h475.8V127.7ZM511.2,406.1c0,6.4-5.2,11.4-11.4,11.4H100.7c-6.4,0-11.4-5.2-11.4-11.4V131.8c0-6.4,5.2-11.4,11.4-11.4h399c6.4,0,11.4,5.2,11.4,11.4v274.3h0Z"/>
    <path class="st0" d="M50.8,467.5h-26v5c0,19,15.5,34.4,34.4,34.4h481.8c19,0,34.4-15.5,34.4-34.4v-5H50.8Z"/>
  </g>
  <g>
    <path class="st0" d="M293.2,260.7l-62.5-22.3v13.5c0,9,5.7,17,14.3,19.8l53.1,17.7c.7.2,1.5.4,2.2.4s1.5-.1,2.2-.4l53.1-17.7c8.6-2.8,14.3-10.8,14.3-19.8v-13.5l-62.5,22.3c-2.2.8-4.6,1.2-7,1.2s-4.8-.4-7-1.2h0q0,0,0,0Z"/>
    <path class="st0" d="M200.5,212.8l97.4,34.8c.8.3,1.5.4,2.4.4s1.6-.1,2.4-.4l81.1-29v43.3c0,3.8,3.1,7,7,7s7-3.1,7-7v-48.3l2.4-.8c2.8-1,4.6-3.6,4.6-6.5s-1.9-5.6-4.6-6.5l-97.4-34.7c-1.5-.6-3.2-.6-4.7,0l-97.5,34.8c-2.8,1-4.6,3.6-4.6,6.5s1.9,5.6,4.6,6.5h0Z"/>
    <path class="st0" d="M383.7,303.7h-168.8c-5.5,0-11.3,0-15.4,4-2.4,2.4-3.7,5.8-3.7,10v34.8c0,11.5,9.4,20.9,20.9,20.9h167c11.5,0,20.9-9.4,20.9-20.9v-27.8c0-11.5-9.4-20.9-20.9-20.9h0ZM373.3,345.4h-17.4v3.5c0,3.8-3.1,7-7,7s-7-3.1-7-7v-3.5h-114.8c-3.8,0-7-3.1-7-7s3.1-7,7-7h114.8v-3.5c0-3.8,3.1-7,7-7s7,3.1,7,7v3.5h17.4c3.8,0,7,3.1,7,7s-3.1,7-7,7Z"/>
  </g>
</svg>