<?xml version="1.0" standalone="no"?>
<!DOCTYPE svg PUBLIC "-//W3C//DTD SVG 20010904//EN"
 "http://www.w3.org/TR/2001/REC-SVG-20010904/DTD/svg10.dtd">
<svg version="1.0" xmlns="http://www.w3.org/2000/svg"
 width="1920.000000pt" height="1564.000000pt" viewBox="0 0 1920.000000 1564.000000"
 preserveAspectRatio="xMidYMid meet">
<metadata>
Created by potrace 1.16, written by Peter Selinger 2001-2019
</metadata>
<g transform="translate(0.000000,1564.000000) scale(0.100000,-0.100000)"
fill="#000000" stroke="none">
<path d="M9800 14929 c-508 -56 -1011 -236 -1410 -504 -178 -120 -271 -196
-410 -335 -186 -187 -320 -374 -431 -605 -55 -112 -149 -374 -149 -412 0 -10
29 33 65 94 183 316 431 612 650 776 90 67 283 171 340 183 l30 6 -40 -32
c-68 -56 -238 -231 -305 -315 -422 -530 -605 -1187 -529 -1895 17 -154 54
-358 85 -462 10 -33 -11 -19 -89 60 -98 99 -139 153 -182 238 -42 83 -45 66
-15 -91 84 -432 399 -819 880 -1078 85 -46 125 -64 475 -217 267 -117 589
-282 725 -372 207 -136 304 -234 465 -473 l67 -100 -7 45 c-12 71 -68 227
-117 325 -87 170 -227 342 -376 459 l-63 49 178 92 c342 175 559 330 686 490
37 46 82 133 74 141 -2 2 -31 -16 -64 -41 -85 -61 -224 -139 -340 -189 -466
-202 -917 -204 -1341 -6 -543 255 -832 739 -832 1395 0 472 150 978 388 1315
60 84 330 354 452 451 418 334 858 489 1384 489 535 0 938 -141 1227 -429 148
-149 248 -320 301 -512 20 -73 22 -107 22 -269 0 -160 -3 -196 -22 -267 -61
-224 -146 -392 -294 -580 -53 -68 -53 -75 2 -42 109 66 244 204 334 342 129
198 232 511 268 815 6 56 15 102 18 102 13 0 148 -295 183 -400 266 -785 105
-1498 -466 -2063 l-99 -98 63 32 c149 74 332 246 451 425 324 483 454 1286
302 1870 -136 526 -486 978 -982 1271 -273 161 -571 264 -898 313 -110 16
-185 20 -359 19 -121 -1 -254 -5 -295 -10z"/>
<path d="M10444 12646 c-19 -19 -34 -38 -34 -44 0 -5 19 -13 43 -16 23 -4 65
-20 94 -36 68 -39 98 -100 111 -225 16 -151 -6 -254 -59 -270 -67 -22 -143 33
-198 144 -21 43 -50 96 -64 118 -14 22 -32 59 -40 83 -18 54 -33 61 -48 23
-23 -60 19 -215 86 -319 22 -33 112 -131 201 -219 186 -183 210 -222 248 -388
13 -56 40 -160 60 -232 76 -269 112 -595 97 -890 -6 -114 -11 -150 -30 -192
-13 -29 -29 -53 -36 -53 -7 0 -28 24 -48 54 -99 149 -124 290 -147 806 -11
251 -22 341 -46 399 -14 34 -16 35 -27 16 -9 -14 -13 -141 -15 -452 -3 -403
-2 -440 18 -558 40 -237 130 -471 291 -756 235 -417 328 -657 380 -979 35
-220 28 -206 56 -120 35 107 38 191 14 351 -29 199 -68 363 -108 459 -57 134
-100 272 -133 419 -42 194 -50 255 -56 430 -10 345 -80 1032 -190 1861 -56
425 -88 610 -104 610 -13 0 -60 -53 -60 -67 0 -20 -12 -16 -57 17 -43 32 -112
60 -145 60 -11 0 -35 -15 -54 -34z"/>
<path d="M12485 12387 c-4 -29 -5 -84 -2 -122 5 -89 -9 -294 -28 -406 -20
-115 -41 -172 -113 -309 -33 -63 -101 -210 -150 -326 -50 -116 -109 -241 -131
-277 -78 -128 -128 -265 -120 -326 3 -20 18 -6 97 93 l92 118 0 -89 c0 -290
-66 -736 -146 -988 -42 -132 -337 -739 -427 -878 -21 -32 -36 -61 -34 -63 9
-9 201 132 271 201 20 19 36 31 36 27 0 -14 -136 -307 -225 -484 -101 -201
-177 -334 -289 -505 -107 -165 -349 -566 -455 -756 -45 -81 -127 -241 -180
-355 -299 -631 -650 -1265 -954 -1722 -96 -145 -257 -368 -334 -464 -71 -89
-27 -55 129 100 533 528 1014 1237 1518 2238 86 170 161 311 167 313 27 9 23
-189 -12 -607 -7 -96 -17 -224 -20 -285 -18 -318 -76 -574 -172 -757 -66 -127
-253 -364 -638 -808 -88 -102 -172 -201 -187 -220 -23 -31 -53 -128 -43 -139
14 -13 459 407 656 620 275 295 380 450 494 727 84 207 85 215 130 882 30 452
35 498 80 694 85 363 196 705 282 862 80 146 224 588 327 999 54 218 79 346
105 541 69 519 186 1156 245 1341 133 415 193 784 152 943 -32 123 -84 240
-106 240 -5 0 -12 -24 -15 -53z"/>
<path d="M7190 12018 c-34 -60 -53 -118 -76 -232 -23 -110 -15 -396 15 -556
42 -225 149 -585 298 -1005 145 -407 199 -603 219 -795 5 -57 28 -119 40 -108
2 2 15 43 29 91 84 290 233 409 405 322 318 -161 1033 -1131 1306 -1770 66
-154 139 -382 159 -497 25 -141 19 -297 -15 -363 -35 -67 -83 -92 -146 -76
-115 29 -267 132 -409 276 -354 359 -638 945 -820 1695 -72 294 -64 269 -75
249 -13 -22 -29 -167 -25 -219 13 -153 18 -194 40 -304 61 -301 209 -696 419
-1116 359 -716 701 -1026 1012 -920 99 34 192 109 302 245 l32 40 -19 -45
c-167 -399 -582 -1265 -775 -1620 -65 -118 -194 -368 -286 -555 -143 -288
-178 -368 -230 -525 -117 -351 -145 -449 -121 -424 22 22 234 406 508 919 72
134 187 340 545 975 446 793 596 1076 740 1395 144 319 205 487 263 729 56
228 129 651 155 891 18 164 9 158 98 66 72 -74 127 -111 168 -111 14 0 13 5
-5 33 -40 60 -88 162 -114 242 -45 137 -58 240 -62 495 -2 162 -8 257 -18 307
-15 71 -41 133 -55 133 -4 0 -22 -84 -41 -187 -80 -446 -169 -908 -182 -936
-6 -14 -7 117 -2 388 12 622 9 1252 -5 1375 -14 112 -37 210 -51 210 -4 0 -11
-136 -15 -302 -13 -567 -35 -1038 -56 -1206 -73 -588 -200 -1078 -360 -1391
-53 -104 -53 -104 -84 -15 -148 420 -386 920 -608 1279 -98 157 -244 359 -342
473 -111 129 -110 131 36 67 358 -155 763 -615 1057 -1202 23 -46 43 -83 45
-83 7 0 -26 188 -55 315 -106 465 -266 817 -462 1019 -157 161 -534 370 -1077
596 -298 124 -390 171 -528 267 -279 196 -507 426 -589 596 -25 51 -68 186
-119 377 -27 100 -27 116 -8 387 7 95 0 163 -16 163 -5 0 -23 -24 -40 -52z"/>
<path d="M11482 10413 c-29 -14 -92 -86 -92 -104 0 -5 14 -3 31 3 85 30 216
-21 250 -97 43 -97 65 -310 37 -370 -6 -14 -27 -35 -45 -46 -31 -20 -43 -21
-139 -14 -57 4 -104 4 -104 -1 0 -4 20 -28 44 -54 82 -88 125 -209 126 -355
l0 -70 53 120 c79 181 135 282 193 344 l52 57 -13 89 c-48 314 -103 423 -249
491 -60 28 -98 30 -144 7z"/>
<path d="M7767 9097 c-127 -568 -32 -1225 267 -1860 l56 -119 -17 -91 c-36
-193 -18 -510 43 -782 56 -252 224 -783 432 -1370 l61 -170 0 65 c2 127 -33
286 -112 522 -128 378 -205 734 -238 1093 -16 183 4 467 32 449 5 -3 35 -38
66 -77 204 -258 532 -594 707 -724 73 -53 185 -123 198 -123 5 0 -24 37 -64
83 -307 345 -631 813 -860 1241 -334 626 -512 1219 -543 1816 -3 63 -7 116 -9
117 -1 2 -10 -30 -19 -70z"/>
<path d="M10865 6278 c-118 -234 -551 -851 -890 -1267 -236 -290 -579 -644
-825 -852 -113 -96 -365 -290 -470 -363 -23 -16 -38 -32 -33 -36 15 -14 128
-31 243 -37 330 -17 699 82 1068 286 303 166 535 350 642 505 35 52 75 145 65
154 -2 3 -31 -16 -62 -42 -100 -80 -279 -208 -390 -279 -278 -174 -599 -302
-811 -323 l-67 -7 43 32 c117 87 377 363 563 601 474 605 844 1232 938 1594
12 44 19 81 17 84 -3 2 -17 -20 -31 -50z"/>
<path d="M11055 5340 c-11 -21 -15 -60 -15 -137 0 -399 -168 -737 -528 -1059
-204 -182 -358 -292 -627 -444 -99 -56 -200 -114 -225 -128 -24 -14 -39 -27
-33 -29 23 -8 183 28 285 63 292 101 643 331 971 636 59 55 110 98 113 96 9
-10 -55 -238 -91 -318 -20 -46 -60 -121 -90 -166 -51 -78 -185 -225 -249 -273
-16 -12 -26 -24 -22 -28 23 -23 357 -10 566 23 156 25 219 44 237 71 22 33 13
117 -22 213 -115 317 -150 515 -174 970 -6 102 -17 232 -26 290 -17 113 -45
250 -51 250 -2 0 -10 -13 -19 -30z"/>
<path d="M8399 3586 c-13 -13 -80 -147 -148 -297 -417 -918 -550 -1216 -601
-1343 -26 -67 -120 -406 -120 -435 0 -7 10 -11 23 -9 20 3 51 56 200 350 162
318 200 383 445 765 148 230 281 441 297 468 46 80 84 124 128 146 44 23 49
23 197 -10 383 -83 1137 -118 1729 -80 84 5 155 8 158 6 7 -8 -122 -36 -262
-56 -211 -31 -370 -41 -669 -41 -409 0 -685 23 -911 76 -60 15 -137 28 -171
31 -57 5 -63 3 -96 -26 -57 -49 -56 -117 1 -140 47 -19 407 -67 716 -96 374
-34 478 -39 815 -40 382 0 448 6 693 61 182 41 393 74 475 74 84 0 130 -19
153 -62 6 -13 70 -111 140 -219 82 -125 129 -206 129 -223 0 -33 10 -33 40 -1
l23 25 -56 147 c-209 555 -310 820 -318 835 -29 54 -116 59 -439 28 -823 -79
-744 -74 -1210 -75 -299 0 -468 4 -540 13 -132 16 -359 62 -562 113 -186 46
-226 49 -259 15z"/>
<path d="M11695 2174 c-376 -133 -1177 -234 -1850 -234 -656 0 -1286 84 -1629
216 -101 39 -138 42 -182 15 -34 -21 -48 -45 -218 -366 -158 -298 -162 -316
-84 -354 92 -44 505 -140 798 -185 389 -59 684 -74 1297 -64 631 9 1128 47
1596 119 133 21 162 20 140 -2 -32 -32 -470 -110 -855 -153 -397 -45 -698 -59
-1118 -53 -379 6 -576 19 -885 57 -306 38 -673 108 -885 170 -122 36 -124 36
-112 13 15 -28 82 -86 133 -116 146 -86 495 -194 789 -246 461 -81 1258 -94
2145 -36 377 25 611 63 828 136 177 59 291 127 425 253 81 76 87 112 46 265
-41 152 -144 481 -169 537 -34 77 -62 80 -210 28z"/>
</g>
</svg>
