<?xml version="1.0" encoding="UTF-8"?>
<svg id="Capa_1" xmlns="http://www.w3.org/2000/svg" version="1.1" viewBox="0 0 600 600">
  <!-- Generator: Adobe Illustrator 30.1.0, SVG Export Plug-In . SVG Version: 2.1.1 Build 136)  -->
  <defs>
    <style>
      .st0 {
        fill: #1c4d86;
      }
    </style>
  </defs>
  <g id="F38_x2C__Earth_x2C__environment_x2C__globe_x2C__nature">
    <g>
      <path class="st0" d="M231.7,135.5c10.6-27,23.4-46.8,37.6-58.4-59.1,8.2-113,39.6-149.3,87.9h101.9c2.9-10.4,6.2-20.2,9.8-29.5h0Z"/>
      <path class="st0" d="M368.3,135.5c3.6,9.2,6.9,19.1,9.8,29.5h101.9c-36.3-48.3-90.1-79.7-149.3-87.9,14.2,11.6,27,31.4,37.6,58.4h0Z"/>
      <path class="st0" d="M205,305H75c.9,43,14,84.3,37.9,120h106.4c-8.9-35.7-13.9-76.9-14.2-120Z"/>
      <path class="st0" d="M219.2,175h-106.4c-23.9,35.7-36.9,77-37.9,120h130c.4-43.1,5.3-84.3,14.2-120Z"/>
      <path class="st0" d="M229.5,425h140.8c9.1-35.4,14.2-76.7,14.6-120h-170c.4,43.3,5.4,84.6,14.6,120Z"/>
      <path class="st0" d="M370.4,175h-140.8c-9.1,35.4-14.2,76.7-14.6,120h170c-.4-43.3-5.4-84.6-14.6-120h0Z"/>
      <path class="st0" d="M232.3,165h135.4c-2.6-9.1-5.5-17.7-8.7-25.8-16-40.8-37.5-64.2-59-64.2s-43,23.4-59,64.2c-3.2,8.1-6.1,16.7-8.7,25.8Z"/>
      <path class="st0" d="M380.7,425h106.4c23.9-35.7,36.9-77,37.9-120h-130c-.4,43.1-5.3,84.3-14.2,120Z"/>
      <path class="st0" d="M394.9,295h130c-.9-43-14-84.3-37.9-120h-106.4c8.9,35.7,13.9,76.9,14.2,120h0Z"/>
      <path class="st0" d="M231.7,464.5c-3.6-9.2-6.9-19.1-9.8-29.5h-101.9c36.3,48.3,90.1,79.7,149.3,87.9-14.2-11.6-27-31.4-37.6-58.4Z"/>
      <path class="st0" d="M367.6,435h-135.4c2.6,9.1,5.5,17.7,8.7,25.8,16,40.8,37.5,64.2,59,64.2s43-23.4,59-64.2c3.2-8.1,6.1-16.7,8.7-25.8h0Z"/>
      <path class="st0" d="M368.3,464.5c-10.6,27-23.4,46.8-37.6,58.4,59.1-8.2,113-39.6,149.3-87.9h-101.9c-2.9,10.4-6.2,20.2-9.8,29.5h0Z"/>
    </g>
  </g>
</svg>