<?xml version="1.0" encoding="UTF-8"?>
<svg id="Capa_1" data-name="Capa 1" xmlns="http://www.w3.org/2000/svg" xmlns:xlink="http://www.w3.org/1999/xlink" viewBox="0 0 600 600">
  <defs>
    <style>
      .cls-1 {
        fill: url(#Nueva_muestra_de_degradado_1-11);
      }

      .cls-2 {
        fill: url(#Nueva_muestra_de_degradado_1-13);
      }

      .cls-3 {
        fill: url(#Nueva_muestra_de_degradado_1-2);
      }

      .cls-4 {
        fill: #fff;
      }

      .cls-5 {
        fill: url(#Nueva_muestra_de_degradado_1-10);
      }

      .cls-6 {
        fill: url(#Nueva_muestra_de_degradado_1-12);
      }

      .cls-7 {
        fill: url(#Nueva_muestra_de_degradado_1-6);
      }

      .cls-8 {
        fill: url(#Nueva_muestra_de_degradado_1-7);
      }

      .cls-9 {
        fill: url(#Nueva_muestra_de_degradado_1-3);
      }

      .cls-10 {
        fill: url(#Nueva_muestra_de_degradado_1-8);
      }

      .cls-11 {
        fill: url(#Nueva_muestra_de_degradado_1-14);
      }

      .cls-12 {
        fill: url(#Nueva_muestra_de_degradado_1-5);
      }

      .cls-13 {
        fill: url(#Nueva_muestra_de_degradado_1-9);
      }

      .cls-14 {
        fill: url(#Nueva_muestra_de_degradado_1);
      }

      .cls-15 {
        fill: url(#Nueva_muestra_de_degradado_1-4);
      }
    </style>
    <linearGradient id="Nueva_muestra_de_degradado_1" data-name="Nueva muestra de degradado 1" x1="140.17" y1="206.31" x2="459.83" y2="206.31" gradientUnits="userSpaceOnUse">
      <stop offset="0" stop-color="#1c4d87"/>
      <stop offset="1" stop-color="#000"/>
    </linearGradient>
    <linearGradient id="Nueva_muestra_de_degradado_1-2" data-name="Nueva muestra de degradado 1" x1="134.66" y1="288.98" x2="465.34" y2="288.98" xlink:href="#Nueva_muestra_de_degradado_1"/>
    <linearGradient id="Nueva_muestra_de_degradado_1-3" data-name="Nueva muestra de degradado 1" x1="244.89" y1="291.73" x2="288.98" y2="291.73" xlink:href="#Nueva_muestra_de_degradado_1"/>
    <linearGradient id="Nueva_muestra_de_degradado_1-4" data-name="Nueva muestra de degradado 1" x1="178.75" y1="291.73" x2="222.84" y2="291.73" xlink:href="#Nueva_muestra_de_degradado_1"/>
    <linearGradient id="Nueva_muestra_de_degradado_1-5" data-name="Nueva muestra de degradado 1" x1="377.16" y1="291.73" x2="421.25" y2="291.73" xlink:href="#Nueva_muestra_de_degradado_1"/>
    <linearGradient id="Nueva_muestra_de_degradado_1-6" data-name="Nueva muestra de degradado 1" x1="244.89" y1="341.33" x2="288.98" y2="341.33" xlink:href="#Nueva_muestra_de_degradado_1"/>
    <linearGradient id="Nueva_muestra_de_degradado_1-7" data-name="Nueva muestra de degradado 1" x1="178.75" y1="341.33" x2="222.84" y2="341.33" xlink:href="#Nueva_muestra_de_degradado_1"/>
    <linearGradient id="Nueva_muestra_de_degradado_1-8" data-name="Nueva muestra de degradado 1" x1="244.89" y1="390.94" x2="288.98" y2="390.94" xlink:href="#Nueva_muestra_de_degradado_1"/>
    <linearGradient id="Nueva_muestra_de_degradado_1-9" data-name="Nueva muestra de degradado 1" x1="311.02" y1="291.73" x2="355.11" y2="291.73" xlink:href="#Nueva_muestra_de_degradado_1"/>
    <linearGradient id="Nueva_muestra_de_degradado_1-10" data-name="Nueva muestra de degradado 1" x1="311.02" y1="341.33" x2="355.11" y2="341.33" xlink:href="#Nueva_muestra_de_degradado_1"/>
    <linearGradient id="Nueva_muestra_de_degradado_1-11" data-name="Nueva muestra de degradado 1" x1="311.02" y1="390.94" x2="355.11" y2="390.94" xlink:href="#Nueva_muestra_de_degradado_1"/>
    <linearGradient id="Nueva_muestra_de_degradado_1-12" data-name="Nueva muestra de degradado 1" x1="178.75" y1="390.94" x2="222.84" y2="390.94" xlink:href="#Nueva_muestra_de_degradado_1"/>
    <linearGradient id="Nueva_muestra_de_degradado_1-13" data-name="Nueva muestra de degradado 1" x1="338.58" y1="393.69" x2="481.87" y2="393.69" xlink:href="#Nueva_muestra_de_degradado_1"/>
    <linearGradient id="Nueva_muestra_de_degradado_1-14" data-name="Nueva muestra de degradado 1" x1="344.09" y1="393.69" x2="476.36" y2="393.69" xlink:href="#Nueva_muestra_de_degradado_1"/>
  </defs>
  <g id="Calendar">
    <path class="cls-14" d="M437.78,173.24h-33.07v16.53c0,9.13-7.4,16.53-16.53,16.53s-16.53-7.4-16.53-16.53v-16.53h-55.11v16.53c0,9.13-7.4,16.53-16.53,16.53s-16.53-7.4-16.53-16.53v-16.53h-55.11v16.53c0,9.13-7.4,16.53-16.53,16.53s-16.53-7.4-16.53-16.53v-16.53h-33.07c-12.18,0-22.05,9.87-22.05,22.05v44.09h319.65v-44.09c0-12.18-9.87-22.05-22.05-22.05Z"/>
    <g>
      <path class="cls-3" d="M437.78,167.73h-27.56v-11.02c0-12.18-9.87-22.05-22.05-22.05s-22.05,9.87-22.05,22.05v11.02h-44.09v-11.02c0-12.18-9.87-22.05-22.05-22.05s-22.05,9.87-22.05,22.05v11.02h-44.09v-11.02c0-12.18-9.87-22.05-22.05-22.05s-22.05,9.87-22.05,22.05v11.02h-27.56c-15.22,0-27.56,12.34-27.56,27.56v220.45c0,15.22,12.34,27.56,27.56,27.56h154.32c3.04,0,5.51-2.47,5.51-5.51s-2.47-5.51-5.51-5.51h-154.32c-9.12-.03-16.51-7.41-16.53-16.53v-170.85h308.63v93.69c0,3.04,2.47,5.51,5.51,5.51s5.51-2.47,5.51-5.51v-143.29c0-15.22-12.34-27.56-27.56-27.56ZM377.16,156.71c0-6.09,4.93-11.02,11.02-11.02s11.02,4.93,11.02,11.02v33.07c0,6.09-4.93,11.02-11.02,11.02s-11.02-4.93-11.02-11.02v-33.07ZM288.98,156.71c0-6.09,4.93-11.02,11.02-11.02s11.02,4.93,11.02,11.02v33.07c0,6.09-4.93,11.02-11.02,11.02s-11.02-4.93-11.02-11.02v-33.07ZM200.8,156.71c0-6.09,4.93-11.02,11.02-11.02s11.02,4.93,11.02,11.02v33.07c0,6.09-4.93,11.02-11.02,11.02s-11.02-4.93-11.02-11.02v-33.07ZM454.32,233.86H145.68v-38.58c.03-9.12,7.41-16.51,16.53-16.53h27.56v11.02c0,12.18,9.87,22.05,22.05,22.05s22.05-9.87,22.05-22.05v-11.02h44.09v11.02c0,12.18,9.87,22.05,22.05,22.05s22.05-9.87,22.05-22.05v-11.02h44.09v11.02c0,12.18,9.87,22.05,22.05,22.05s22.05-9.87,22.05-22.05v-11.02h27.56c9.12.03,16.51,7.41,16.53,16.53v38.58Z"/>
      <path class="cls-9" d="M288.98,283.47c0-6.09-4.93-11.02-11.02-11.02h-22.05c-6.09,0-11.02,4.93-11.02,11.02v16.53c0,6.09,4.93,11.02,11.02,11.02h22.05c6.09,0,11.02-4.93,11.02-11.02v-16.53ZM255.91,300v-16.53h22.05v16.53h-22.05Z"/>
      <path class="cls-15" d="M222.84,283.47c0-6.09-4.93-11.02-11.02-11.02h-22.05c-6.09,0-11.02,4.93-11.02,11.02v16.53c0,6.09,4.93,11.02,11.02,11.02h22.05c6.09,0,11.02-4.93,11.02-11.02v-16.53ZM189.77,300v-16.53h22.05v16.53h-22.05Z"/>
      <path class="cls-12" d="M410.23,311.02c6.09,0,11.02-4.93,11.02-11.02v-16.53c0-6.09-4.93-11.02-11.02-11.02h-22.05c-6.09,0-11.02,4.93-11.02,11.02v16.53c0,6.09,4.93,11.02,11.02,11.02h22.05ZM388.18,283.47h22.05v16.53h-22.05v-16.53Z"/>
      <path class="cls-7" d="M288.98,333.07c0-6.09-4.93-11.02-11.02-11.02h-22.05c-6.09,0-11.02,4.93-11.02,11.02v16.53c0,6.09,4.93,11.02,11.02,11.02h22.05c6.09,0,11.02-4.93,11.02-11.02v-16.53ZM255.91,349.6v-16.53h22.05v16.53h-22.05Z"/>
      <path class="cls-8" d="M222.84,333.07c0-6.09-4.93-11.02-11.02-11.02h-22.05c-6.09,0-11.02,4.93-11.02,11.02v16.53c0,6.09,4.93,11.02,11.02,11.02h22.05c6.09,0,11.02-4.93,11.02-11.02v-16.53ZM189.77,349.6v-16.53h22.05v16.53h-22.05Z"/>
      <path class="cls-10" d="M277.95,371.65h-22.05c-6.09,0-11.02,4.93-11.02,11.02v16.53c0,6.09,4.93,11.02,11.02,11.02h22.05c6.09,0,11.02-4.93,11.02-11.02v-16.53c0-6.09-4.93-11.02-11.02-11.02ZM255.91,399.2v-16.53h22.05v16.53h-22.05Z"/>
      <path class="cls-13" d="M322.05,311.02h22.05c6.09,0,11.02-4.93,11.02-11.02v-16.53c0-6.09-4.93-11.02-11.02-11.02h-22.05c-6.09,0-11.02,4.93-11.02,11.02v16.53c0,6.09,4.93,11.02,11.02,11.02ZM322.05,283.47h22.05v16.53h-22.05v-16.53Z"/>
      <path class="cls-5" d="M322.05,360.62h22.05c6.09,0,11.02-4.93,11.02-11.02v-16.53c0-6.09-4.93-11.02-11.02-11.02h-22.05c-6.09,0-11.02,4.93-11.02,11.02v16.53c0,6.09,4.93,11.02,11.02,11.02ZM322.05,333.07h22.05v16.53h-22.05v-16.53Z"/>
      <path class="cls-1" d="M322.05,410.23h22.05c6.09,0,11.02-4.93,11.02-11.02v-16.53c0-6.09-4.93-11.02-11.02-11.02h-22.05c-6.09,0-11.02,4.93-11.02,11.02v16.53c0,6.09,4.93,11.02,11.02,11.02ZM322.05,382.67h22.05v16.53h-22.05v-16.53Z"/>
      <path class="cls-6" d="M211.82,371.65h-22.05c-6.09,0-11.02,4.93-11.02,11.02v16.53c0,6.09,4.93,11.02,11.02,11.02h22.05c6.09,0,11.02-4.93,11.02-11.02v-16.53c0-6.09-4.93-11.02-11.02-11.02ZM189.77,399.2v-16.53h22.05v16.53h-22.05Z"/>
      <path class="cls-2" d="M410.23,322.05c-39.57,0-71.65,32.08-71.65,71.65s32.08,71.65,71.65,71.65,71.65-32.08,71.65-71.65c-.05-39.55-32.1-71.6-71.65-71.65ZM410.23,454.32c-33.48,0-60.62-27.14-60.62-60.62s27.14-60.62,60.62-60.62,60.62,27.14,60.62,60.62c-.04,33.47-27.16,60.58-60.62,60.62Z"/>
    </g>
    <circle class="cls-11" cx="410.23" cy="393.69" r="66.14"/>
  </g>
  <g>
    <path class="cls-4" d="M459.16,384.76l-25.25-25.25c-4.92-4.92-12.93-4.92-17.85,0-2.39,2.38-3.7,5.55-3.7,8.92s1.31,6.54,3.7,8.92l16.32,16.32-16.32,16.32c-2.39,2.39-3.7,5.55-3.7,8.92s1.31,6.54,3.7,8.92c2.39,2.39,5.55,3.7,8.92,3.7s6.54-1.31,8.92-3.7l25.25-25.25c2.39-2.38,3.7-5.55,3.7-8.92s-1.31-6.54-3.7-8.92ZM454.69,398.15l-25.25,25.25c-2.39,2.39-6.53,2.39-8.92,0-2.46-2.46-2.46-6.46,0-8.92l20.78-20.78-20.78-20.78c-1.19-1.19-1.85-2.78-1.85-4.46s.66-3.27,1.85-4.46c1.23-1.23,2.85-1.85,4.46-1.85s3.23.62,4.46,1.84l25.25,25.25c1.19,1.2,1.85,2.78,1.85,4.47s-.66,3.27-1.85,4.46Z"/>
    <path class="cls-4" d="M414.98,384.76l-25.25-25.25c-4.92-4.92-12.93-4.92-17.85,0-2.39,2.38-3.7,5.55-3.7,8.92s1.31,6.54,3.7,8.92l16.32,16.32-16.32,16.32c-2.39,2.39-3.7,5.55-3.7,8.92s1.31,6.54,3.7,8.92c2.39,2.39,5.55,3.7,8.92,3.7s6.54-1.31,8.92-3.7l25.25-25.25c2.39-2.38,3.7-5.55,3.7-8.92s-1.31-6.54-3.7-8.92ZM410.52,398.15l-25.25,25.25c-2.39,2.39-6.53,2.39-8.92,0-2.46-2.46-2.46-6.46,0-8.92l20.78-20.78-20.78-20.78c-1.19-1.19-1.85-2.78-1.85-4.46s.66-3.27,1.85-4.46c1.23-1.23,2.85-1.85,4.46-1.85s3.23.62,4.46,1.84l25.25,25.25c1.19,1.2,1.85,2.78,1.85,4.47s-.66,3.27-1.85,4.46Z"/>
  </g>
</svg>