<?xml version="1.0" standalone="no"?>
<!DOCTYPE svg PUBLIC "-//W3C//DTD SVG 20010904//EN"
 "http://www.w3.org/TR/2001/REC-SVG-20010904/DTD/svg10.dtd">
<svg version="1.0" xmlns="http://www.w3.org/2000/svg"
 width="512.000000pt" height="648.000000pt" viewBox="0 0 512.000000 648.000000"
 preserveAspectRatio="xMidYMid meet">

<g transform="translate(0.000000,648.000000) scale(0.100000,-0.100000)"
stroke="none">
<path fill="#EE1818" d="M2480 6420 l0 -50 -60 0 -60 0 0 -50 0 -50 60 0 60 0 0 -95 0 -95 50
0 50 0 0 95 0 95 55 0 55 0 0 50 0 50 -55 0 -55 0 0 50 0 50 -50 0 -50 0 0
-50z"/>
<path fill="#EE1818" d="M198 5986 c-59 -16 -108 -49 -139 -94 -21 -31 -24 -47 -24 -116 l1
-81 1247 -2835 c686 -1559 1251 -2838 1255 -2842 6 -6 2379 5369 2498 5657 24
58 22 151 -3 200 -26 50 -46 69 -108 97 l-50 23 -816 3 -817 3 5 -66 c3 -36 0
-100 -7 -143 -42 -267 -226 -483 -485 -569 -71 -24 -96 -27 -215 -27 -122 0
-143 2 -215 28 -299 103 -487 364 -487 673 l0 103 -797 -1 c-608 0 -807 -3
-843 -13z"/>
<path fill="#EE1818" d="M2844 5991 c-12 -5 -31 -22 -44 -38 -17 -22 -21 -37 -17 -71 6 -51
33 -84 98 -118 59 -30 79 -49 79 -79 0 -32 -25 -55 -61 -55 -42 0 -64 14 -79
50 -8 18 -20 30 -31 30 -17 0 -19 -8 -19 -62 l0 -63 94 -3 c113 -3 157 11 181
59 23 44 15 112 -16 146 -13 14 -49 38 -80 53 -72 37 -85 53 -71 85 23 51 104
37 118 -20 4 -16 13 -25 25 -25 16 0 19 8 19 58 l0 57 -88 2 c-48 1 -97 -2
-108 -6z"/>
<path fill="#EE1818" d="M2022 5973 c2 -10 13 -19 26 -21 30 -5 33 -25 30 -177 l-3 -130 -27
-13 c-16 -7 -28 -20 -28 -28 0 -11 20 -14 105 -14 87 0 105 3 105 15 0 9 -11
20 -25 25 l-26 10 3 152 c3 150 3 153 26 156 14 2 22 10 22 23 0 18 -8 19
-106 19 -95 0 -105 -2 -102 -17z"/>
<path fill="#EE1818" d="M2300 5971 c0 -10 9 -21 20 -24 19 -5 20 -14 20 -156 l0 -151 -25
-12 c-14 -6 -25 -17 -25 -25 0 -10 23 -13 100 -13 83 0 100 3 100 15 0 9 -8
19 -17 22 -28 10 -33 24 -33 91 l0 62 65 0 65 0 0 -62 c0 -67 -5 -81 -32 -91
-10 -3 -18 -13 -18 -22 0 -12 16 -15 95 -15 74 0 95 3 95 14 0 7 -10 20 -22
28 -21 14 -23 24 -26 139 -4 128 6 179 33 179 8 0 15 9 15 20 0 19 -7 20 -95
20 -84 0 -95 -2 -95 -18 0 -9 10 -22 23 -27 18 -8 22 -19 25 -67 l3 -58 -66 0
-66 0 3 58 c3 48 7 59 26 67 12 5 22 18 22 27 0 16 -11 18 -95 18 -86 0 -95
-2 -95 -19z"/>
<path fill="#004180" d="M7 3240 c-12 -45 -8 -2281 4 -2325 15 -52 82 -119 134 -134 43 -12
955 -16 955 -5 0 4 -242 559 -539 1233 -296 674 -541 1233 -543 1241 -3 9 -7
6 -11 -10z"/>
<path fill="#004180" d="M5060 3240 c0 -5 -241 -557 -536 -1227 -295 -670 -538 -1224 -541
-1231 -4 -10 86 -12 473 -10 l479 3 47 27 c34 21 53 41 72 80 l26 52 0 1158
c0 765 -3 1158 -10 1158 -5 0 -10 -4 -10 -10z"/>
</g>
</svg>