<?xml version="1.0" encoding="utf-8"?>
<!-- Generator: Adobe Illustrator 25.4.1, SVG Export Plug-In . SVG Version: 6.00 Build 0)  -->
<svg version="1.1" id="Capa_1" xmlns="http://www.w3.org/2000/svg" xmlns:xlink="http://www.w3.org/1999/xlink" x="0px" y="0px"
	 viewBox="0 0 1300 283" style="enable-background:new 0 0 1300 283;" xml:space="preserve">
<style type="text/css">
	.st0{fill-rule:evenodd;clip-rule:evenodd;fill:#004180;}
	.st1{fill-rule:evenodd;clip-rule:evenodd;fill:#D61920;}
</style>
<g>
	<path class="st0" d="M20,142.6v88.4v1.7c0.4,3.9,3.6,7,7.6,7.2h1H64l-42.6-96.7c-0.3-0.7-0.8-1.8-1.1-2.8
		C20.1,141.1,20,141.9,20,142.6"/>
	<path class="st0" d="M222.9,142.6v88.4v1.7c-0.4,3.9-3.6,7-7.6,7.2h-1h-35.5l42.6-96.7c0.3-0.7,0.8-1.8,1.1-2.8
		C222.8,141.1,222.9,141.9,222.9,142.6"/>
	<path class="st1" d="M220.7,45.2c3.6-8.3-0.9-14.1-9.8-14.1h-61.5c0.2,1.3,0.3,2.7,0.3,4.1c0,15.6-12.7,28.3-28.3,28.3
		c-15.6,0-28.3-12.7-28.3-28.3c0-1.4,0.1-2.7,0.3-4.1H32c-8.9,0-13.4,5.8-9.8,14.1l99.3,225.7L220.7,45.2z"/>
	<path class="st0" d="M1167,231.5h113v-28.8h-79.6V47.5H1167V231.5z M1061.5,79.4c0,0,3.9,18.1,7.3,28.5l16.3,49.2h-48.2l16.3-49.2
		c3.6-10.4,7.8-28.5,7.8-28.5H1061.5z M1109,231.5h34.5l-64.8-184h-35l-64.8,184h34.5l15.5-47.2h64.5L1109,231.5z M844.4,209.5
		c0,0,22.5,25.1,63.5,25.1c38.3,0,60.6-24.6,60.6-53.9c0-58.8-86.5-50.8-86.5-83.4c0-13,12.2-22,27.7-22c23.1,0,40.7,16.1,40.7,16.1
		l14.5-27.2c0,0-18.7-19.7-54.9-19.7c-35.2,0-61.7,22.8-61.7,53.4c0,56.5,86.8,50.8,86.8,83.7c0,15-12.7,22.3-26.7,22.3
		c-25.9,0-45.9-19.4-45.9-19.4L844.4,209.5z M752.9,79.4c0,0,3.9,18.1,7.3,28.5l16.3,49.2h-48.2l16.3-49.2
		c3.6-10.4,7.8-28.5,7.8-28.5H752.9z M800.3,231.5h34.5L770,47.5h-35l-64.8,184h34.5l15.5-47.2h64.5L800.3,231.5z M495.1,138.7
		c0,54.2,38.9,95.9,95.1,95.9c46.9,0,72.3-29.8,72.3-29.8l-17.6-24.1c0,0-21.5,23.3-53.4,23.3c-38.4,0-61.9-30.8-61.9-65.8
		c0-34.2,22.8-63.2,61.7-63.2c29.3,0,50.3,19.4,50.3,19.4l16.1-24.9c0,0-23.1-25.1-67.9-25.1C535.5,44.4,495.1,85.4,495.1,138.7z
		 M315.2,165.4c0,41.2,29.8,69.2,74.4,69.2c44.3,0,74.1-28,74.1-69.2V47.5h-33.4v117.6c0,24.9-16.3,38.9-40.9,38.9
		c-24.6,0-40.7-14-40.7-38.6V47.5h-33.4V165.4z"/>
	<path class="st1" d="M133.8,47.6c-1.3-0.3-1.5-0.3-2.6,0l-0.5,0.1v-5h1.5c0,0.2,0.1,0.4,0.1,0.6c0.4,1.5,1.4,2.4,2.6,2.7
		c1.7,0.4,3.1-0.5,3.3-1.8c0.3-1.2-0.2-2.1-1.8-2.9l-0.9-0.4l-0.5-0.3c-0.2-0.1-0.5-0.2-0.7-0.4c-1.7-1-2.5-1.7-2.9-2.8
		c-0.1-0.3-0.2-0.6-0.3-0.9c-0.6-3.5,2.1-6.1,7.1-5.3c0.2,0,0.5,0.1,0.7,0.1l0.7,0.2h0.1c0.2,0,0.3,0,0.6,0c0.5,0,0.9-0.1,1.3-0.2
		V36H140l0-0.3l-0.1-0.3c-0.4-1.3-1-2.1-1.9-2.5c-0.2-0.1-0.3-0.1-0.5-0.2c-1.4-0.3-2.6,0.5-2.7,1.5c-0.2,0.8,0.1,1.4,1,2.1
		c0.3,0.2,0.7,0.5,1.6,0.9l0.5,0.2l0.9,0.4c2.5,1.2,3.5,2.9,3.5,5.2C142.1,46.6,139.2,48.7,133.8,47.6"/>
	<path class="st1" d="M128.3,32.8c-0.1,0-0.1,0-0.2,0c-1.4,0.2-1.7,0.6-1.8,2.5c0,0.1,0,0.2,0,0.3v7.5c0,0.1,0,0.2,0,0.3
		c0.1,1.9,0.4,2.3,1.7,2.5c0.1,0,0.2,0,0.2,0v1.4h-7.9v-1.4c0,0,0.1,0,0.2,0c1.5-0.1,1.8-0.6,1.9-2.4c0-0.1,0-0.3,0-0.4v-3.4h-5.2
		v3.4c0,0.1,0,0.3,0,0.4c0.1,1.8,0.4,2.3,1.9,2.4c0.1,0,0.1,0,0.2,0v1.4h-7.9v-1.4c0.1,0,0.2,0,0.3,0c1.3-0.2,1.6-0.6,1.7-2.5
		c0-0.1,0-0.2,0-0.3v-7.5c0-0.1,0-0.2,0-0.3c-0.1-1.9-0.4-2.4-1.8-2.5c-0.1,0-0.1,0-0.2,0v-1.4h7.8v1.4c-0.1,0-0.2,0-0.3,0
		c-1.3,0.2-1.7,0.7-1.7,2l0,0.8V38h5.2v-2.4l0-0.8c0-1.3-0.5-1.8-1.7-2c-0.1,0-0.2,0-0.4,0v-1.4h7.9V32.8z"/>
	<path class="st1" d="M109.2,32.8c-0.1,0-0.2,0-0.3,0c-1.5,0.1-2,0.6-2.1,1.9l0,0.7v0.3V43v0.7l0,0.3c0,0.2,0,0.3,0,0.5
		c0.2,1,0.7,1.4,2,1.5c0.1,0,0.2,0,0.3,0v1.4h-8.4V46c0.1,0,0.1,0,0.2,0c1.5-0.1,2-0.5,2-1.9l0-0.7v-0.4v-7.2l0-1c0-1.4-0.5-1.9-2-2
		c-0.1,0-0.2,0-0.2,0v-1.4h8.4V32.8z"/>
	<polygon class="st1" points="114.2,16.3 118.9,16.3 118.9,12.1 122.9,12.1 122.9,16.3 127.5,16.3 127.5,20.3 122.9,20.3 
		122.9,27.9 118.9,27.9 118.9,20.3 114.2,20.3 	"/>
</g>
</svg>
